<?xml version="1.0" encoding="UTF-8" standalone="no"?><svg xmlns="http://www.w3.org/2000/svg" xmlns:xlink="http://www.w3.org/1999/xlink" contentScriptType="application/ecmascript" contentStyleType="text/css" height="1397px" preserveAspectRatio="none" style="width:1895px;height:1397px;" version="1.1" viewBox="0 0 1895 1397" width="1895px" zoomAndPan="magnify"><defs><filter height="300%" id="f1n7jzs19tcy6q" width="300%" x="-1" y="-1"><feGaussianBlur result="blurOut" stdDeviation="2.0"/><feColorMatrix in="blurOut" result="blurOut2" type="matrix" values="0 0 0 0 0 0 0 0 0 0 0 0 0 0 0 0 0 0 .4 0"/><feOffset dx="4.0" dy="4.0" in="blurOut2" result="blurOut3"/><feBlend in="SourceGraphic" in2="blurOut3" mode="normal"/></filter></defs><g><!--MD5=[71630c464ec83216904a376e3815e2d7]
cluster DynamicInvoke--><polygon fill="#FFFFFF" filter="url(#f1n7jzs19tcy6q)" points="16,16,26,6,1878,6,1878,1380,1868,1390,16,1390,16,16" style="stroke:#000000;stroke-width:1.5;"/><line style="stroke:#000000;stroke-width:1.5;" x1="1868" x2="1878" y1="16" y2="6"/><line style="stroke:#000000;stroke-width:1.5;" x1="16" x2="1868" y1="16" y2="16"/><line style="stroke:#000000;stroke-width:1.5;" x1="1868" x2="1868" y1="16" y2="1390"/><text fill="#000000" font-family="sans-serif" font-size="14" font-weight="bold" lengthAdjust="spacingAndGlyphs" textLength="121" x="882.5" y="31.9951">DynamicInvoke</text><!--MD5=[81e2b89d87988b765e76e47caad2752f]
cluster BeanDynamicObject--><polygon fill="#FFFFFF" filter="url(#f1n7jzs19tcy6q)" points="48,1135,216,1135,223,1157.2969,629,1157.2969,629,1358,48,1358,48,1135" style="stroke:#000000;stroke-width:1.5;"/><line style="stroke:#000000;stroke-width:1.5;" x1="48" x2="223" y1="1157.2969" y2="1157.2969"/><text fill="#000000" font-family="sans-serif" font-size="14" font-weight="bold" lengthAdjust="spacingAndGlyphs" textLength="162" x="52" y="1149.9951">BeanDynamicObject</text><!--MD5=[38097508257059b8eab9e7121e0285da]
cluster DefaultConvention--><polygon fill="#FFFFFF" filter="url(#f1n7jzs19tcy6q)" points="669,871,826,871,833,893.2969,1574,893.2969,1574,1250,669,1250,669,871" style="stroke:#000000;stroke-width:1.5;"/><line style="stroke:#000000;stroke-width:1.5;" x1="669" x2="833" y1="893.2969" y2="893.2969"/><text fill="#000000" font-family="sans-serif" font-size="14" font-weight="bold" lengthAdjust="spacingAndGlyphs" textLength="151" x="673" y="885.9951">DefaultConvention</text><!--MD5=[1caf2f45000c52834421dd146b729129]
class MethodAccess--><rect codeLine="2" fill="#FEFECE" filter="url(#f1n7jzs19tcy6q)" height="73.6094" id="MethodAccess" style="stroke:#A80036;stroke-width:1.5;" width="433" x="1163.5" y="58.5"/><ellipse cx="1332.75" cy="74.5" fill="#B4A7E5" rx="11" ry="11" style="stroke:#A80036;stroke-width:1.0;"/><path d="M1333.7031,71.2813 L1335.4219,71.2813 C1335.8125,71.2813 1336,71.25 1336.125,71.1719 C1336.3906,71.0156 1336.5313,70.7344 1336.5313,70.4375 C1336.5313,70.1719 1336.4219,69.9063 1336.1875,69.7344 C1336.0156,69.625 1335.875,69.5938 1335.4219,69.5938 L1330.2813,69.5938 C1329.8438,69.5938 1329.7188,69.6094 1329.5625,69.7031 C1329.3125,69.8594 1329.1563,70.1563 1329.1563,70.4375 C1329.1563,70.7188 1329.2969,70.9688 1329.5156,71.1406 C1329.6719,71.25 1329.8594,71.2813 1330.2813,71.2813 L1332,71.2813 L1332,77.7969 L1330.2813,77.7969 C1329.8438,77.7969 1329.7188,77.8125 1329.5625,77.9219 C1329.3125,78.0781 1329.1563,78.3594 1329.1563,78.6563 C1329.1563,78.9063 1329.2969,79.1719 1329.5156,79.3281 C1329.6719,79.4531 1329.875,79.5 1330.2813,79.5 L1335.4219,79.5 C1336.1719,79.5 1336.5313,79.2188 1336.5313,78.6563 C1336.5313,78.375 1336.4219,78.125 1336.1875,77.9531 C1336.0156,77.8281 1335.875,77.7969 1335.4219,77.7969 L1333.7031,77.7969 L1333.7031,71.2813 Z " fill="#000000"/><text fill="#000000" font-family="sans-serif" font-size="12" font-style="italic" lengthAdjust="spacingAndGlyphs" textLength="86" x="1353.25" y="78.6543">MethodAccess</text><line style="stroke:#A80036;stroke-width:1.5;" x1="1164.5" x2="1595.5" y1="90.5" y2="90.5"/><line style="stroke:#A80036;stroke-width:1.5;" x1="1164.5" x2="1595.5" y1="98.5" y2="98.5"/><text fill="#000000" font-family="sans-serif" font-size="11" lengthAdjust="spacingAndGlyphs" textLength="311" x="1169.5" y="112.7104">boolean hasMethod(String name, Object... arguments);</text><text fill="#000000" font-family="sans-serif" font-size="11" lengthAdjust="spacingAndGlyphs" textLength="421" x="1169.5" y="125.5151">DynamicInvokeResult tryInvokeMethod(String name, Object... arguments);</text><!--MD5=[2a0e7350a624c710d1f6712cdd9b8487]
class PropertyAccess--><rect codeLine="7" fill="#FEFECE" filter="url(#f1n7jzs19tcy6q)" height="99.2188" id="PropertyAccess" style="stroke:#A80036;stroke-width:1.5;" width="382" x="746" y="46"/><ellipse cx="886.75" cy="62" fill="#B4A7E5" rx="11" ry="11" style="stroke:#A80036;stroke-width:1.0;"/><path d="M887.7031,58.7813 L889.4219,58.7813 C889.8125,58.7813 890,58.75 890.125,58.6719 C890.3906,58.5156 890.5313,58.2344 890.5313,57.9375 C890.5313,57.6719 890.4219,57.4063 890.1875,57.2344 C890.0156,57.125 889.875,57.0938 889.4219,57.0938 L884.2813,57.0938 C883.8438,57.0938 883.7188,57.1094 883.5625,57.2031 C883.3125,57.3594 883.1563,57.6563 883.1563,57.9375 C883.1563,58.2188 883.2969,58.4688 883.5156,58.6406 C883.6719,58.75 883.8594,58.7813 884.2813,58.7813 L886,58.7813 L886,65.2969 L884.2813,65.2969 C883.8438,65.2969 883.7188,65.3125 883.5625,65.4219 C883.3125,65.5781 883.1563,65.8594 883.1563,66.1563 C883.1563,66.4063 883.2969,66.6719 883.5156,66.8281 C883.6719,66.9531 883.875,67 884.2813,67 L889.4219,67 C890.1719,67 890.5313,66.7188 890.5313,66.1563 C890.5313,65.875 890.4219,65.625 890.1875,65.4531 C890.0156,65.3281 889.875,65.2969 889.4219,65.2969 L887.7031,65.2969 L887.7031,58.7813 Z " fill="#000000"/><text fill="#000000" font-family="sans-serif" font-size="12" font-style="italic" lengthAdjust="spacingAndGlyphs" textLength="92" x="907.25" y="66.1543">PropertyAccess</text><line style="stroke:#A80036;stroke-width:1.5;" x1="747" x2="1127" y1="78" y2="78"/><line style="stroke:#A80036;stroke-width:1.5;" x1="747" x2="1127" y1="86" y2="86"/><text fill="#000000" font-family="sans-serif" font-size="11" lengthAdjust="spacingAndGlyphs" textLength="198" x="752" y="100.2104">boolean hasProperty(String name);</text><text fill="#000000" font-family="sans-serif" font-size="11" lengthAdjust="spacingAndGlyphs" textLength="291" x="752" y="113.0151">DynamicInvokeResult tryGetProperty(String name);</text><text fill="#000000" font-family="sans-serif" font-size="11" lengthAdjust="spacingAndGlyphs" textLength="370" x="752" y="125.8198">DynamicInvokeResult trySetProperty(String name, Object value);</text><text fill="#000000" font-family="sans-serif" font-size="11" lengthAdjust="spacingAndGlyphs" textLength="178" x="752" y="138.6245">Map&lt;String, ?&gt; getProperties();</text><!--MD5=[8072a37dd611d5912734cd8b2e7e1e72]
class DynamicObject--><rect codeLine="14" fill="#FEFECE" filter="url(#f1n7jzs19tcy6q)" height="48" id="DynamicObject" style="stroke:#A80036;stroke-width:1.5;" width="124" x="1096" y="205"/><ellipse cx="1111" cy="221" fill="#B4A7E5" rx="11" ry="11" style="stroke:#A80036;stroke-width:1.0;"/><path d="M1111.9531,217.7813 L1113.6719,217.7813 C1114.0625,217.7813 1114.25,217.75 1114.375,217.6719 C1114.6406,217.5156 1114.7813,217.2344 1114.7813,216.9375 C1114.7813,216.6719 1114.6719,216.4063 1114.4375,216.2344 C1114.2656,216.125 1114.125,216.0938 1113.6719,216.0938 L1108.5313,216.0938 C1108.0938,216.0938 1107.9688,216.1094 1107.8125,216.2031 C1107.5625,216.3594 1107.4063,216.6563 1107.4063,216.9375 C1107.4063,217.2188 1107.5469,217.4688 1107.7656,217.6406 C1107.9219,217.75 1108.1094,217.7813 1108.5313,217.7813 L1110.25,217.7813 L1110.25,224.2969 L1108.5313,224.2969 C1108.0938,224.2969 1107.9688,224.3125 1107.8125,224.4219 C1107.5625,224.5781 1107.4063,224.8594 1107.4063,225.1563 C1107.4063,225.4063 1107.5469,225.6719 1107.7656,225.8281 C1107.9219,225.9531 1108.125,226 1108.5313,226 L1113.6719,226 C1114.4219,226 1114.7813,225.7188 1114.7813,225.1563 C1114.7813,224.875 1114.6719,224.625 1114.4375,224.4531 C1114.2656,224.3281 1114.125,224.2969 1113.6719,224.2969 L1111.9531,224.2969 L1111.9531,217.7813 Z " fill="#000000"/><text fill="#000000" font-family="sans-serif" font-size="12" font-style="italic" lengthAdjust="spacingAndGlyphs" textLength="92" x="1125" y="225.1543">DynamicObject</text><line style="stroke:#A80036;stroke-width:1.5;" x1="1097" x2="1219" y1="237" y2="237"/><line style="stroke:#A80036;stroke-width:1.5;" x1="1097" x2="1219" y1="245" y2="245"/><!--MD5=[93053f0a002e640b567a01e405959a3d]
class AbstractDynamicObject--><rect codeLine="15" fill="#FEFECE" filter="url(#f1n7jzs19tcy6q)" height="48" id="AbstractDynamicObject" style="stroke:#A80036;stroke-width:1.5;" width="175" x="1070.5" y="313"/><ellipse cx="1085.5" cy="329" fill="#A9DCDF" rx="11" ry="11" style="stroke:#A80036;stroke-width:1.0;"/><path d="M1087.5781,330.8125 L1087.9688,331.7969 L1087.5781,331.7969 C1087.125,331.7969 1087.0156,331.8125 1086.8594,331.9219 C1086.6094,332.0781 1086.4531,332.3594 1086.4531,332.6563 C1086.4531,332.9219 1086.5938,333.1719 1086.8125,333.3281 C1086.9531,333.4531 1087.1563,333.5 1087.5781,333.5 L1089.9375,333.5 C1090.2969,333.5 1090.5156,333.4688 1090.6563,333.375 C1090.9063,333.2344 1091.0625,332.9375 1091.0625,332.6563 C1091.0625,332.375 1090.9219,332.125 1090.7031,331.9688 C1090.5313,331.8281 1090.375,331.7969 1089.9063,331.7969 L1086.5156,323.5938 L1082.8438,323.5938 C1082.3906,323.5938 1082.2656,323.6094 1082.1094,323.7031 C1081.8594,323.875 1081.7031,324.1563 1081.7031,324.4375 C1081.7031,324.7188 1081.8438,324.9688 1082.0625,325.1406 C1082.2344,325.25 1082.4063,325.2813 1082.8438,325.2813 L1083.9219,325.2813 L1081.2813,331.7969 C1080.8594,331.7969 1080.7031,331.8125 1080.5469,331.9219 C1080.2969,332.0781 1080.1406,332.3594 1080.1406,332.6563 C1080.1406,333.2188 1080.5156,333.5 1081.2656,333.5 L1083.5313,333.5 C1083.8906,333.5 1084.1094,333.4688 1084.2344,333.375 C1084.5,333.2344 1084.6406,332.9375 1084.6406,332.6563 C1084.6406,332.375 1084.5156,332.125 1084.2969,331.9531 C1084.125,331.8281 1083.9844,331.7969 1083.5313,331.7969 L1083.1406,331.7969 L1083.5313,330.8125 L1087.5781,330.8125 Z M1086.875,329.1094 L1084.2031,329.1094 L1085.5469,325.8438 L1086.875,329.1094 Z " fill="#000000"/><text fill="#000000" font-family="sans-serif" font-size="12" font-style="italic" lengthAdjust="spacingAndGlyphs" textLength="143" x="1099.5" y="333.1543">AbstractDynamicObject</text><line style="stroke:#A80036;stroke-width:1.5;" x1="1071.5" x2="1244.5" y1="345" y2="345"/><line style="stroke:#A80036;stroke-width:1.5;" x1="1071.5" x2="1244.5" y1="353" y2="353"/><!--MD5=[f72ccf012483079689c4baacc7675aaf]
class CompositeDynamicObject--><rect codeLine="16" fill="#FEFECE" filter="url(#f1n7jzs19tcy6q)" height="48" id="CompositeDynamicObject" style="stroke:#A80036;stroke-width:1.5;" width="187" x="1064.5" y="421"/><ellipse cx="1079.5" cy="437" fill="#A9DCDF" rx="11" ry="11" style="stroke:#A80036;stroke-width:1.0;"/><path d="M1081.5781,438.8125 L1081.9688,439.7969 L1081.5781,439.7969 C1081.125,439.7969 1081.0156,439.8125 1080.8594,439.9219 C1080.6094,440.0781 1080.4531,440.3594 1080.4531,440.6563 C1080.4531,440.9219 1080.5938,441.1719 1080.8125,441.3281 C1080.9531,441.4531 1081.1563,441.5 1081.5781,441.5 L1083.9375,441.5 C1084.2969,441.5 1084.5156,441.4688 1084.6563,441.375 C1084.9063,441.2344 1085.0625,440.9375 1085.0625,440.6563 C1085.0625,440.375 1084.9219,440.125 1084.7031,439.9688 C1084.5313,439.8281 1084.375,439.7969 1083.9063,439.7969 L1080.5156,431.5938 L1076.8438,431.5938 C1076.3906,431.5938 1076.2656,431.6094 1076.1094,431.7031 C1075.8594,431.875 1075.7031,432.1563 1075.7031,432.4375 C1075.7031,432.7188 1075.8438,432.9688 1076.0625,433.1406 C1076.2344,433.25 1076.4063,433.2813 1076.8438,433.2813 L1077.9219,433.2813 L1075.2813,439.7969 C1074.8594,439.7969 1074.7031,439.8125 1074.5469,439.9219 C1074.2969,440.0781 1074.1406,440.3594 1074.1406,440.6563 C1074.1406,441.2188 1074.5156,441.5 1075.2656,441.5 L1077.5313,441.5 C1077.8906,441.5 1078.1094,441.4688 1078.2344,441.375 C1078.5,441.2344 1078.6406,440.9375 1078.6406,440.6563 C1078.6406,440.375 1078.5156,440.125 1078.2969,439.9531 C1078.125,439.8281 1077.9844,439.7969 1077.5313,439.7969 L1077.1406,439.7969 L1077.5313,438.8125 L1081.5781,438.8125 Z M1080.875,437.1094 L1078.2031,437.1094 L1079.5469,433.8438 L1080.875,437.1094 Z " fill="#000000"/><text fill="#000000" font-family="sans-serif" font-size="12" font-style="italic" lengthAdjust="spacingAndGlyphs" textLength="155" x="1093.5" y="441.1543">CompositeDynamicObject</text><line style="stroke:#A80036;stroke-width:1.5;" x1="1065.5" x2="1250.5" y1="453" y2="453"/><line style="stroke:#A80036;stroke-width:1.5;" x1="1065.5" x2="1250.5" y1="461" y2="461"/><!--MD5=[06bea08e30dafa2854bf3e5c28c9ffb7]
class MixInClosurePropertiesAsMethodsDynamicObject--><rect codeLine="17" fill="#FEFECE" filter="url(#f1n7jzs19tcy6q)" height="48" id="MixInClosurePropertiesAsMethodsDynamicObject" style="stroke:#A80036;stroke-width:1.5;" width="325" x="995.5" y="529"/><ellipse cx="1010.5" cy="545" fill="#A9DCDF" rx="11" ry="11" style="stroke:#A80036;stroke-width:1.0;"/><path d="M1012.5781,546.8125 L1012.9688,547.7969 L1012.5781,547.7969 C1012.125,547.7969 1012.0156,547.8125 1011.8594,547.9219 C1011.6094,548.0781 1011.4531,548.3594 1011.4531,548.6563 C1011.4531,548.9219 1011.5938,549.1719 1011.8125,549.3281 C1011.9531,549.4531 1012.1563,549.5 1012.5781,549.5 L1014.9375,549.5 C1015.2969,549.5 1015.5156,549.4688 1015.6563,549.375 C1015.9063,549.2344 1016.0625,548.9375 1016.0625,548.6563 C1016.0625,548.375 1015.9219,548.125 1015.7031,547.9688 C1015.5313,547.8281 1015.375,547.7969 1014.9063,547.7969 L1011.5156,539.5938 L1007.8438,539.5938 C1007.3906,539.5938 1007.2656,539.6094 1007.1094,539.7031 C1006.8594,539.875 1006.7031,540.1563 1006.7031,540.4375 C1006.7031,540.7188 1006.8438,540.9688 1007.0625,541.1406 C1007.2344,541.25 1007.4063,541.2813 1007.8438,541.2813 L1008.9219,541.2813 L1006.2813,547.7969 C1005.8594,547.7969 1005.7031,547.8125 1005.5469,547.9219 C1005.2969,548.0781 1005.1406,548.3594 1005.1406,548.6563 C1005.1406,549.2188 1005.5156,549.5 1006.2656,549.5 L1008.5313,549.5 C1008.8906,549.5 1009.1094,549.4688 1009.2344,549.375 C1009.5,549.2344 1009.6406,548.9375 1009.6406,548.6563 C1009.6406,548.375 1009.5156,548.125 1009.2969,547.9531 C1009.125,547.8281 1008.9844,547.7969 1008.5313,547.7969 L1008.1406,547.7969 L1008.5313,546.8125 L1012.5781,546.8125 Z M1011.875,545.1094 L1009.2031,545.1094 L1010.5469,541.8438 L1011.875,545.1094 Z " fill="#000000"/><text fill="#000000" font-family="sans-serif" font-size="12" font-style="italic" lengthAdjust="spacingAndGlyphs" textLength="293" x="1024.5" y="549.1543">MixInClosurePropertiesAsMethodsDynamicObject</text><line style="stroke:#A80036;stroke-width:1.5;" x1="996.5" x2="1319.5" y1="561" y2="561"/><line style="stroke:#A80036;stroke-width:1.5;" x1="996.5" x2="1319.5" y1="569" y2="569"/><!--MD5=[442efb43fb8e66df616571998a3bb854]
class ExtraPropertiesDynamicObjectAdapter--><rect codeLine="18" fill="#FEFECE" filter="url(#f1n7jzs19tcy6q)" height="48" id="ExtraPropertiesDynamicObjectAdapter" style="stroke:#A80036;stroke-width:1.5;" width="263" x="1598.5" y="946"/><ellipse cx="1613.5" cy="962" fill="#ADD1B2" rx="11" ry="11" style="stroke:#A80036;stroke-width:1.0;"/><path d="M1615.8438,957.6719 C1614.9063,957.2344 1614.3125,957.0938 1613.4375,957.0938 C1610.8125,957.0938 1608.8125,959.1719 1608.8125,961.8906 L1608.8125,963.0156 C1608.8125,965.5938 1610.9219,967.4844 1613.8125,967.4844 C1615.0313,967.4844 1616.1875,967.1875 1616.9375,966.6406 C1617.5156,966.2344 1617.8438,965.7813 1617.8438,965.3906 C1617.8438,964.9375 1617.4531,964.5469 1616.9844,964.5469 C1616.7656,964.5469 1616.5625,964.625 1616.375,964.8125 C1615.9219,965.2969 1615.9219,965.2969 1615.7344,965.3906 C1615.3125,965.6563 1614.625,965.7813 1613.8594,965.7813 C1611.8125,965.7813 1610.5156,964.6875 1610.5156,962.9844 L1610.5156,961.8906 C1610.5156,960.1094 1611.7656,958.7969 1613.5,958.7969 C1614.0781,958.7969 1614.6875,958.9531 1615.1563,959.2031 C1615.6406,959.4844 1615.8125,959.7031 1615.9063,960.1094 C1615.9688,960.5156 1616,960.6406 1616.1406,960.7656 C1616.2813,960.9063 1616.5156,961.0156 1616.7344,961.0156 C1617,961.0156 1617.2656,960.875 1617.4375,960.6563 C1617.5469,960.5 1617.5781,960.3125 1617.5781,959.8906 L1617.5781,958.4688 C1617.5781,958.0313 1617.5625,957.9063 1617.4688,957.75 C1617.3125,957.4844 1617.0313,957.3438 1616.7344,957.3438 C1616.4375,957.3438 1616.2344,957.4375 1616.0156,957.75 L1615.8438,957.6719 Z " fill="#000000"/><text fill="#000000" font-family="sans-serif" font-size="12" lengthAdjust="spacingAndGlyphs" textLength="231" x="1627.5" y="966.1543">ExtraPropertiesDynamicObjectAdapter</text><line style="stroke:#A80036;stroke-width:1.5;" x1="1599.5" x2="1860.5" y1="978" y2="978"/><line style="stroke:#A80036;stroke-width:1.5;" x1="1599.5" x2="1860.5" y1="986" y2="986"/><!--MD5=[63a4aa7a1069e86e3e99ac11c4ff529f]
class MixInExtensibleDynamicObject--><rect fill="#FEFECE" filter="url(#f1n7jzs19tcy6q)" height="48" id="MixInExtensibleDynamicObject" style="stroke:#A80036;stroke-width:1.5;" width="215" x="744.5" y="675.5"/><ellipse cx="759.5" cy="691.5" fill="#ADD1B2" rx="11" ry="11" style="stroke:#A80036;stroke-width:1.0;"/><path d="M761.8438,687.1719 C760.9063,686.7344 760.3125,686.5938 759.4375,686.5938 C756.8125,686.5938 754.8125,688.6719 754.8125,691.3906 L754.8125,692.5156 C754.8125,695.0938 756.9219,696.9844 759.8125,696.9844 C761.0313,696.9844 762.1875,696.6875 762.9375,696.1406 C763.5156,695.7344 763.8438,695.2813 763.8438,694.8906 C763.8438,694.4375 763.4531,694.0469 762.9844,694.0469 C762.7656,694.0469 762.5625,694.125 762.375,694.3125 C761.9219,694.7969 761.9219,694.7969 761.7344,694.8906 C761.3125,695.1563 760.625,695.2813 759.8594,695.2813 C757.8125,695.2813 756.5156,694.1875 756.5156,692.4844 L756.5156,691.3906 C756.5156,689.6094 757.7656,688.2969 759.5,688.2969 C760.0781,688.2969 760.6875,688.4531 761.1563,688.7031 C761.6406,688.9844 761.8125,689.2031 761.9063,689.6094 C761.9688,690.0156 762,690.1406 762.1406,690.2656 C762.2813,690.4063 762.5156,690.5156 762.7344,690.5156 C763,690.5156 763.2656,690.375 763.4375,690.1563 C763.5469,690 763.5781,689.8125 763.5781,689.3906 L763.5781,687.9688 C763.5781,687.5313 763.5625,687.4063 763.4688,687.25 C763.3125,686.9844 763.0313,686.8438 762.7344,686.8438 C762.4375,686.8438 762.2344,686.9375 762.0156,687.25 L761.8438,687.1719 Z " fill="#000000"/><text fill="#000000" font-family="sans-serif" font-size="12" lengthAdjust="spacingAndGlyphs" textLength="183" x="773.5" y="695.6543">MixInExtensibleDynamicObject</text><line style="stroke:#A80036;stroke-width:1.5;" x1="745.5" x2="958.5" y1="707.5" y2="707.5"/><line style="stroke:#A80036;stroke-width:1.5;" x1="745.5" x2="958.5" y1="715.5" y2="715.5"/><!--MD5=[85c0c870012200e87d362904075b1619]
class ExtensibleDynamicObject--><rect codeLine="21" fill="#FEFECE" filter="url(#f1n7jzs19tcy6q)" height="124.8281" id="ExtensibleDynamicObject" style="stroke:#A80036;stroke-width:1.5;" width="326" x="995" y="637"/><ellipse cx="1077.25" cy="653" fill="#ADD1B2" rx="11" ry="11" style="stroke:#A80036;stroke-width:1.0;"/><path d="M1079.5938,648.6719 C1078.6563,648.2344 1078.0625,648.0938 1077.1875,648.0938 C1074.5625,648.0938 1072.5625,650.1719 1072.5625,652.8906 L1072.5625,654.0156 C1072.5625,656.5938 1074.6719,658.4844 1077.5625,658.4844 C1078.7813,658.4844 1079.9375,658.1875 1080.6875,657.6406 C1081.2656,657.2344 1081.5938,656.7813 1081.5938,656.3906 C1081.5938,655.9375 1081.2031,655.5469 1080.7344,655.5469 C1080.5156,655.5469 1080.3125,655.625 1080.125,655.8125 C1079.6719,656.2969 1079.6719,656.2969 1079.4844,656.3906 C1079.0625,656.6563 1078.375,656.7813 1077.6094,656.7813 C1075.5625,656.7813 1074.2656,655.6875 1074.2656,653.9844 L1074.2656,652.8906 C1074.2656,651.1094 1075.5156,649.7969 1077.25,649.7969 C1077.8281,649.7969 1078.4375,649.9531 1078.9063,650.2031 C1079.3906,650.4844 1079.5625,650.7031 1079.6563,651.1094 C1079.7188,651.5156 1079.75,651.6406 1079.8906,651.7656 C1080.0313,651.9063 1080.2656,652.0156 1080.4844,652.0156 C1080.75,652.0156 1081.0156,651.875 1081.1875,651.6563 C1081.2969,651.5 1081.3281,651.3125 1081.3281,650.8906 L1081.3281,649.4688 C1081.3281,649.0313 1081.3125,648.9063 1081.2188,648.75 C1081.0625,648.4844 1080.7813,648.3438 1080.4844,648.3438 C1080.1875,648.3438 1079.9844,648.4375 1079.7656,648.75 L1079.5938,648.6719 Z " fill="#000000"/><text fill="#000000" font-family="sans-serif" font-size="12" lengthAdjust="spacingAndGlyphs" textLength="153" x="1097.75" y="657.1543">ExtensibleDynamicObject</text><line style="stroke:#A80036;stroke-width:1.5;" x1="996" x2="1320" y1="669" y2="669"/><text fill="#000000" font-family="sans-serif" font-size="11" lengthAdjust="spacingAndGlyphs" textLength="314" x="1001" y="683.2104">private final AbstractDynamicObject dynamicDelegate;</text><text fill="#000000" font-family="sans-serif" font-size="11" lengthAdjust="spacingAndGlyphs" textLength="175" x="1001" y="696.0151">private DynamicObject parent;</text><text fill="#000000" font-family="sans-serif" font-size="11" lengthAdjust="spacingAndGlyphs" textLength="179" x="1001" y="708.8198">private Convention convention;</text><text fill="#000000" font-family="sans-serif" font-size="11" lengthAdjust="spacingAndGlyphs" textLength="241" x="1001" y="721.6245">private DynamicObject beforeConvention;</text><text fill="#000000" font-family="sans-serif" font-size="11" lengthAdjust="spacingAndGlyphs" textLength="230" x="1001" y="734.4292">private DynamicObject afterConvention;</text><text fill="#000000" font-family="sans-serif" font-size="11" lengthAdjust="spacingAndGlyphs" textLength="312" x="1001" y="747.2339">private DynamicObject extraPropertiesDynamicObject;</text><line style="stroke:#A80036;stroke-width:1.5;" x1="996" x2="1320" y1="753.8281" y2="753.8281"/><path d="M1019,822 L1019,847.1328 L1067,847.1328 L1067,832 L1057,822 L1019,822 " fill="#FBFB77" filter="url(#f1n7jzs19tcy6q)" style="stroke:#A80036;stroke-width:1.0;"/><path d="M1057,822 L1057,832 L1067,832 L1057,822 " fill="#FBFB77" style="stroke:#A80036;stroke-width:1.0;"/><text fill="#000000" font-family="sans-serif" font-size="13" lengthAdjust="spacingAndGlyphs" textLength="27" x="1025" y="839.0669">hold</text><path d="M1701,1086 L1701,1111.1328 L1749,1111.1328 L1749,1096 L1739,1086 L1701,1086 " fill="#FBFB77" filter="url(#f1n7jzs19tcy6q)" style="stroke:#A80036;stroke-width:1.0;"/><path d="M1739,1086 L1739,1096 L1749,1096 L1739,1086 " fill="#FBFB77" style="stroke:#A80036;stroke-width:1.0;"/><text fill="#000000" font-family="sans-serif" font-size="13" lengthAdjust="spacingAndGlyphs" textLength="27" x="1707" y="1103.0669">hold</text><!--MD5=[5e79fa0851c6e7c2450ff4dd58aae462]
class DefaultExtraPropertiesExtension--><rect fill="#FEFECE" filter="url(#f1n7jzs19tcy6q)" height="48" id="DefaultExtraPropertiesExtension" style="stroke:#A80036;stroke-width:1.5;" width="224" x="1603" y="1178"/><ellipse cx="1618" cy="1194" fill="#ADD1B2" rx="11" ry="11" style="stroke:#A80036;stroke-width:1.0;"/><path d="M1620.3438,1189.6719 C1619.4063,1189.2344 1618.8125,1189.0938 1617.9375,1189.0938 C1615.3125,1189.0938 1613.3125,1191.1719 1613.3125,1193.8906 L1613.3125,1195.0156 C1613.3125,1197.5938 1615.4219,1199.4844 1618.3125,1199.4844 C1619.5313,1199.4844 1620.6875,1199.1875 1621.4375,1198.6406 C1622.0156,1198.2344 1622.3438,1197.7813 1622.3438,1197.3906 C1622.3438,1196.9375 1621.9531,1196.5469 1621.4844,1196.5469 C1621.2656,1196.5469 1621.0625,1196.625 1620.875,1196.8125 C1620.4219,1197.2969 1620.4219,1197.2969 1620.2344,1197.3906 C1619.8125,1197.6563 1619.125,1197.7813 1618.3594,1197.7813 C1616.3125,1197.7813 1615.0156,1196.6875 1615.0156,1194.9844 L1615.0156,1193.8906 C1615.0156,1192.1094 1616.2656,1190.7969 1618,1190.7969 C1618.5781,1190.7969 1619.1875,1190.9531 1619.6563,1191.2031 C1620.1406,1191.4844 1620.3125,1191.7031 1620.4063,1192.1094 C1620.4688,1192.5156 1620.5,1192.6406 1620.6406,1192.7656 C1620.7813,1192.9063 1621.0156,1193.0156 1621.2344,1193.0156 C1621.5,1193.0156 1621.7656,1192.875 1621.9375,1192.6563 C1622.0469,1192.5 1622.0781,1192.3125 1622.0781,1191.8906 L1622.0781,1190.4688 C1622.0781,1190.0313 1622.0625,1189.9063 1621.9688,1189.75 C1621.8125,1189.4844 1621.5313,1189.3438 1621.2344,1189.3438 C1620.9375,1189.3438 1620.7344,1189.4375 1620.5156,1189.75 L1620.3438,1189.6719 Z " fill="#000000"/><text fill="#000000" font-family="sans-serif" font-size="12" lengthAdjust="spacingAndGlyphs" textLength="192" x="1632" y="1198.1543">DefaultExtraPropertiesExtension</text><line style="stroke:#A80036;stroke-width:1.5;" x1="1604" x2="1826" y1="1210" y2="1210"/><line style="stroke:#A80036;stroke-width:1.5;" x1="1604" x2="1826" y1="1218" y2="1218"/><!--MD5=[23f0f62dd7b337a238aaa0502155508c]
class ScriptDynamicObject--><rect codeLine="48" fill="#FEFECE" filter="url(#f1n7jzs19tcy6q)" height="86.4141" id="ScriptDynamicObject" style="stroke:#A80036;stroke-width:1.5;" width="191" x="314.5" y="656.5"/><ellipse cx="344.35" cy="672.5" fill="#ADD1B2" rx="11" ry="11" style="stroke:#A80036;stroke-width:1.0;"/><path d="M346.6938,668.1719 C345.7563,667.7344 345.1625,667.5938 344.2875,667.5938 C341.6625,667.5938 339.6625,669.6719 339.6625,672.3906 L339.6625,673.5156 C339.6625,676.0938 341.7719,677.9844 344.6625,677.9844 C345.8813,677.9844 347.0375,677.6875 347.7875,677.1406 C348.3656,676.7344 348.6938,676.2813 348.6938,675.8906 C348.6938,675.4375 348.3031,675.0469 347.8344,675.0469 C347.6156,675.0469 347.4125,675.125 347.225,675.3125 C346.7719,675.7969 346.7719,675.7969 346.5844,675.8906 C346.1625,676.1563 345.475,676.2813 344.7094,676.2813 C342.6625,676.2813 341.3656,675.1875 341.3656,673.4844 L341.3656,672.3906 C341.3656,670.6094 342.6156,669.2969 344.35,669.2969 C344.9281,669.2969 345.5375,669.4531 346.0063,669.7031 C346.4906,669.9844 346.6625,670.2031 346.7563,670.6094 C346.8188,671.0156 346.85,671.1406 346.9906,671.2656 C347.1313,671.4063 347.3656,671.5156 347.5844,671.5156 C347.85,671.5156 348.1156,671.375 348.2875,671.1563 C348.3969,671 348.4281,670.8125 348.4281,670.3906 L348.4281,668.9688 C348.4281,668.5313 348.4125,668.4063 348.3188,668.25 C348.1625,667.9844 347.8813,667.8438 347.5844,667.8438 C347.2875,667.8438 347.0844,667.9375 346.8656,668.25 L346.6938,668.1719 Z " fill="#000000"/><text fill="#000000" font-family="sans-serif" font-size="12" lengthAdjust="spacingAndGlyphs" textLength="126" x="361.65" y="676.6543">ScriptDynamicObject</text><line style="stroke:#A80036;stroke-width:1.5;" x1="315.5" x2="504.5" y1="688.5" y2="688.5"/><text fill="#000000" font-family="sans-serif" font-size="11" lengthAdjust="spacingAndGlyphs" textLength="90" x="320.5" y="702.7104">Binding binding;</text><text fill="#000000" font-family="sans-serif" font-size="11" lengthAdjust="spacingAndGlyphs" textLength="161" x="320.5" y="715.5151">DynamicObject scriptObject;</text><text fill="#000000" font-family="sans-serif" font-size="11" lengthAdjust="spacingAndGlyphs" textLength="179" x="320.5" y="728.3198">DynamicObject dynamicTarget;</text><line style="stroke:#A80036;stroke-width:1.5;" x1="315.5" x2="504.5" y1="734.9141" y2="734.9141"/><path d="M94.5,687 L94.5,712.1328 L241.5,712.1328 L241.5,697 L231.5,687 L94.5,687 " fill="#FBFB77" filter="url(#f1n7jzs19tcy6q)" style="stroke:#A80036;stroke-width:1.0;"/><path d="M231.5,687 L231.5,697 L241.5,697 L231.5,687 " fill="#FBFB77" style="stroke:#A80036;stroke-width:1.0;"/><text fill="#000000" font-family="sans-serif" font-size="13" lengthAdjust="spacingAndGlyphs" textLength="126" x="100.5" y="704.0669">hold as scriptObject</text><path d="M541,687 L541,712.1328 L709,712.1328 L709,697 L699,687 L541,687 " fill="#FBFB77" filter="url(#f1n7jzs19tcy6q)" style="stroke:#A80036;stroke-width:1.0;"/><path d="M699,687 L699,697 L709,697 L699,687 " fill="#FBFB77" style="stroke:#A80036;stroke-width:1.0;"/><text fill="#000000" font-family="sans-serif" font-size="13" lengthAdjust="spacingAndGlyphs" textLength="147" x="547" y="704.0669">hold as dynamicTarget</text><!--MD5=[0b9443dd0f594a8ac2afd9b6d1408f41]
class Convention--><rect fill="#FEFECE" filter="url(#f1n7jzs19tcy6q)" height="48" id="Convention" style="stroke:#A80036;stroke-width:1.5;" width="99" x="1205.5" y="1286"/><ellipse cx="1220.5" cy="1302" fill="#ADD1B2" rx="11" ry="11" style="stroke:#A80036;stroke-width:1.0;"/><path d="M1222.8438,1297.6719 C1221.9063,1297.2344 1221.3125,1297.0938 1220.4375,1297.0938 C1217.8125,1297.0938 1215.8125,1299.1719 1215.8125,1301.8906 L1215.8125,1303.0156 C1215.8125,1305.5938 1217.9219,1307.4844 1220.8125,1307.4844 C1222.0313,1307.4844 1223.1875,1307.1875 1223.9375,1306.6406 C1224.5156,1306.2344 1224.8438,1305.7813 1224.8438,1305.3906 C1224.8438,1304.9375 1224.4531,1304.5469 1223.9844,1304.5469 C1223.7656,1304.5469 1223.5625,1304.625 1223.375,1304.8125 C1222.9219,1305.2969 1222.9219,1305.2969 1222.7344,1305.3906 C1222.3125,1305.6563 1221.625,1305.7813 1220.8594,1305.7813 C1218.8125,1305.7813 1217.5156,1304.6875 1217.5156,1302.9844 L1217.5156,1301.8906 C1217.5156,1300.1094 1218.7656,1298.7969 1220.5,1298.7969 C1221.0781,1298.7969 1221.6875,1298.9531 1222.1563,1299.2031 C1222.6406,1299.4844 1222.8125,1299.7031 1222.9063,1300.1094 C1222.9688,1300.5156 1223,1300.6406 1223.1406,1300.7656 C1223.2813,1300.9063 1223.5156,1301.0156 1223.7344,1301.0156 C1224,1301.0156 1224.2656,1300.875 1224.4375,1300.6563 C1224.5469,1300.5 1224.5781,1300.3125 1224.5781,1299.8906 L1224.5781,1298.4688 C1224.5781,1298.0313 1224.5625,1297.9063 1224.4688,1297.75 C1224.3125,1297.4844 1224.0313,1297.3438 1223.7344,1297.3438 C1223.4375,1297.3438 1223.2344,1297.4375 1223.0156,1297.75 L1222.8438,1297.6719 Z " fill="#000000"/><text fill="#000000" font-family="sans-serif" font-size="12" lengthAdjust="spacingAndGlyphs" textLength="67" x="1234.5" y="1306.1543">Convention</text><line style="stroke:#A80036;stroke-width:1.5;" x1="1206.5" x2="1303.5" y1="1318" y2="1318"/><line style="stroke:#A80036;stroke-width:1.5;" x1="1206.5" x2="1303.5" y1="1326" y2="1326"/><!--MD5=[c931133129632179d888b88a7321676c]
class ExtensionContainerInternal--><rect fill="#FEFECE" filter="url(#f1n7jzs19tcy6q)" height="48" id="ExtensionContainerInternal" style="stroke:#A80036;stroke-width:1.5;" width="191" x="653.5" y="1286"/><ellipse cx="668.5" cy="1302" fill="#ADD1B2" rx="11" ry="11" style="stroke:#A80036;stroke-width:1.0;"/><path d="M670.8438,1297.6719 C669.9063,1297.2344 669.3125,1297.0938 668.4375,1297.0938 C665.8125,1297.0938 663.8125,1299.1719 663.8125,1301.8906 L663.8125,1303.0156 C663.8125,1305.5938 665.9219,1307.4844 668.8125,1307.4844 C670.0313,1307.4844 671.1875,1307.1875 671.9375,1306.6406 C672.5156,1306.2344 672.8438,1305.7813 672.8438,1305.3906 C672.8438,1304.9375 672.4531,1304.5469 671.9844,1304.5469 C671.7656,1304.5469 671.5625,1304.625 671.375,1304.8125 C670.9219,1305.2969 670.9219,1305.2969 670.7344,1305.3906 C670.3125,1305.6563 669.625,1305.7813 668.8594,1305.7813 C666.8125,1305.7813 665.5156,1304.6875 665.5156,1302.9844 L665.5156,1301.8906 C665.5156,1300.1094 666.7656,1298.7969 668.5,1298.7969 C669.0781,1298.7969 669.6875,1298.9531 670.1563,1299.2031 C670.6406,1299.4844 670.8125,1299.7031 670.9063,1300.1094 C670.9688,1300.5156 671,1300.6406 671.1406,1300.7656 C671.2813,1300.9063 671.5156,1301.0156 671.7344,1301.0156 C672,1301.0156 672.2656,1300.875 672.4375,1300.6563 C672.5469,1300.5 672.5781,1300.3125 672.5781,1299.8906 L672.5781,1298.4688 C672.5781,1298.0313 672.5625,1297.9063 672.4688,1297.75 C672.3125,1297.4844 672.0313,1297.3438 671.7344,1297.3438 C671.4375,1297.3438 671.2344,1297.4375 671.0156,1297.75 L670.8438,1297.6719 Z " fill="#000000"/><text fill="#000000" font-family="sans-serif" font-size="12" lengthAdjust="spacingAndGlyphs" textLength="159" x="682.5" y="1306.1543">ExtensionContainerInternal</text><line style="stroke:#A80036;stroke-width:1.5;" x1="654.5" x2="843.5" y1="1318" y2="1318"/><line style="stroke:#A80036;stroke-width:1.5;" x1="654.5" x2="843.5" y1="1326" y2="1326"/><path d="M280,1189.5 L280,1214.6328 L428,1214.6328 L428,1199.5 L418,1189.5 L280,1189.5 " fill="#FBFB77" filter="url(#f1n7jzs19tcy6q)" style="stroke:#A80036;stroke-width:1.0;"/><path d="M418,1189.5 L418,1199.5 L428,1199.5 L418,1189.5 " fill="#FBFB77" style="stroke:#A80036;stroke-width:1.0;"/><text fill="#000000" font-family="sans-serif" font-size="13" lengthAdjust="spacingAndGlyphs" textLength="127" x="286" y="1206.5669">hold and inner class</text><!--MD5=[3b5859e249e9051847dc2440f9944db8]
class BeanDynamicObject--><rect codeLine="40" fill="#FEFECE" filter="url(#f1n7jzs19tcy6q)" height="48" id="BeanDynamicObject" style="stroke:#A80036;stroke-width:1.5;" width="153" x="91.5" y="1178"/><ellipse cx="106.5" cy="1194" fill="#ADD1B2" rx="11" ry="11" style="stroke:#A80036;stroke-width:1.0;"/><path d="M108.8438,1189.6719 C107.9063,1189.2344 107.3125,1189.0938 106.4375,1189.0938 C103.8125,1189.0938 101.8125,1191.1719 101.8125,1193.8906 L101.8125,1195.0156 C101.8125,1197.5938 103.9219,1199.4844 106.8125,1199.4844 C108.0313,1199.4844 109.1875,1199.1875 109.9375,1198.6406 C110.5156,1198.2344 110.8438,1197.7813 110.8438,1197.3906 C110.8438,1196.9375 110.4531,1196.5469 109.9844,1196.5469 C109.7656,1196.5469 109.5625,1196.625 109.375,1196.8125 C108.9219,1197.2969 108.9219,1197.2969 108.7344,1197.3906 C108.3125,1197.6563 107.625,1197.7813 106.8594,1197.7813 C104.8125,1197.7813 103.5156,1196.6875 103.5156,1194.9844 L103.5156,1193.8906 C103.5156,1192.1094 104.7656,1190.7969 106.5,1190.7969 C107.0781,1190.7969 107.6875,1190.9531 108.1563,1191.2031 C108.6406,1191.4844 108.8125,1191.7031 108.9063,1192.1094 C108.9688,1192.5156 109,1192.6406 109.1406,1192.7656 C109.2813,1192.9063 109.5156,1193.0156 109.7344,1193.0156 C110,1193.0156 110.2656,1192.875 110.4375,1192.6563 C110.5469,1192.5 110.5781,1192.3125 110.5781,1191.8906 L110.5781,1190.4688 C110.5781,1190.0313 110.5625,1189.9063 110.4688,1189.75 C110.3125,1189.4844 110.0313,1189.3438 109.7344,1189.3438 C109.4375,1189.3438 109.2344,1189.4375 109.0156,1189.75 L108.8438,1189.6719 Z " fill="#000000"/><text fill="#000000" font-family="sans-serif" font-size="12" lengthAdjust="spacingAndGlyphs" textLength="121" x="120.5" y="1198.1543">BeanDynamicObject</text><line style="stroke:#A80036;stroke-width:1.5;" x1="92.5" x2="243.5" y1="1210" y2="1210"/><line style="stroke:#A80036;stroke-width:1.5;" x1="92.5" x2="243.5" y1="1218" y2="1218"/><!--MD5=[0cdd252adcbd5f02f451a0bdcd8148ad]
class MetaClassAdapter--><rect fill="#FEFECE" filter="url(#f1n7jzs19tcy6q)" height="48" id="MetaClassAdapter" style="stroke:#A80036;stroke-width:1.5;" width="141" x="463.5" y="1178"/><ellipse cx="478.5" cy="1194" fill="#ADD1B2" rx="11" ry="11" style="stroke:#A80036;stroke-width:1.0;"/><path d="M480.8438,1189.6719 C479.9063,1189.2344 479.3125,1189.0938 478.4375,1189.0938 C475.8125,1189.0938 473.8125,1191.1719 473.8125,1193.8906 L473.8125,1195.0156 C473.8125,1197.5938 475.9219,1199.4844 478.8125,1199.4844 C480.0313,1199.4844 481.1875,1199.1875 481.9375,1198.6406 C482.5156,1198.2344 482.8438,1197.7813 482.8438,1197.3906 C482.8438,1196.9375 482.4531,1196.5469 481.9844,1196.5469 C481.7656,1196.5469 481.5625,1196.625 481.375,1196.8125 C480.9219,1197.2969 480.9219,1197.2969 480.7344,1197.3906 C480.3125,1197.6563 479.625,1197.7813 478.8594,1197.7813 C476.8125,1197.7813 475.5156,1196.6875 475.5156,1194.9844 L475.5156,1193.8906 C475.5156,1192.1094 476.7656,1190.7969 478.5,1190.7969 C479.0781,1190.7969 479.6875,1190.9531 480.1563,1191.2031 C480.6406,1191.4844 480.8125,1191.7031 480.9063,1192.1094 C480.9688,1192.5156 481,1192.6406 481.1406,1192.7656 C481.2813,1192.9063 481.5156,1193.0156 481.7344,1193.0156 C482,1193.0156 482.2656,1192.875 482.4375,1192.6563 C482.5469,1192.5 482.5781,1192.3125 482.5781,1191.8906 L482.5781,1190.4688 C482.5781,1190.0313 482.5625,1189.9063 482.4688,1189.75 C482.3125,1189.4844 482.0313,1189.3438 481.7344,1189.3438 C481.4375,1189.3438 481.2344,1189.4375 481.0156,1189.75 L480.8438,1189.6719 Z " fill="#000000"/><text fill="#000000" font-family="sans-serif" font-size="12" lengthAdjust="spacingAndGlyphs" textLength="109" x="492.5" y="1198.1543">MetaClassAdapter</text><line style="stroke:#A80036;stroke-width:1.5;" x1="464.5" x2="603.5" y1="1210" y2="1210"/><line style="stroke:#A80036;stroke-width:1.5;" x1="464.5" x2="603.5" y1="1218" y2="1218"/><!--MD5=[48d9919990ea1caff30054ce0e180f30]
class GroovyObjectAdapter--><rect codeLine="43" fill="#FEFECE" filter="url(#f1n7jzs19tcy6q)" height="48" id="GroovyObjectAdapter" style="stroke:#A80036;stroke-width:1.5;" width="164" x="441" y="1286"/><ellipse cx="456" cy="1302" fill="#ADD1B2" rx="11" ry="11" style="stroke:#A80036;stroke-width:1.0;"/><path d="M458.3438,1297.6719 C457.4063,1297.2344 456.8125,1297.0938 455.9375,1297.0938 C453.3125,1297.0938 451.3125,1299.1719 451.3125,1301.8906 L451.3125,1303.0156 C451.3125,1305.5938 453.4219,1307.4844 456.3125,1307.4844 C457.5313,1307.4844 458.6875,1307.1875 459.4375,1306.6406 C460.0156,1306.2344 460.3438,1305.7813 460.3438,1305.3906 C460.3438,1304.9375 459.9531,1304.5469 459.4844,1304.5469 C459.2656,1304.5469 459.0625,1304.625 458.875,1304.8125 C458.4219,1305.2969 458.4219,1305.2969 458.2344,1305.3906 C457.8125,1305.6563 457.125,1305.7813 456.3594,1305.7813 C454.3125,1305.7813 453.0156,1304.6875 453.0156,1302.9844 L453.0156,1301.8906 C453.0156,1300.1094 454.2656,1298.7969 456,1298.7969 C456.5781,1298.7969 457.1875,1298.9531 457.6563,1299.2031 C458.1406,1299.4844 458.3125,1299.7031 458.4063,1300.1094 C458.4688,1300.5156 458.5,1300.6406 458.6406,1300.7656 C458.7813,1300.9063 459.0156,1301.0156 459.2344,1301.0156 C459.5,1301.0156 459.7656,1300.875 459.9375,1300.6563 C460.0469,1300.5 460.0781,1300.3125 460.0781,1299.8906 L460.0781,1298.4688 C460.0781,1298.0313 460.0625,1297.9063 459.9688,1297.75 C459.8125,1297.4844 459.5313,1297.3438 459.2344,1297.3438 C458.9375,1297.3438 458.7344,1297.4375 458.5156,1297.75 L458.3438,1297.6719 Z " fill="#000000"/><text fill="#000000" font-family="sans-serif" font-size="12" lengthAdjust="spacingAndGlyphs" textLength="132" x="470" y="1306.1543">GroovyObjectAdapter</text><line style="stroke:#A80036;stroke-width:1.5;" x1="442" x2="604" y1="1318" y2="1318"/><line style="stroke:#A80036;stroke-width:1.5;" x1="442" x2="604" y1="1326" y2="1326"/><!--MD5=[2f0b43acd26836168ab929e53f054874]
class MapAdapter--><rect codeLine="44" fill="#FEFECE" filter="url(#f1n7jzs19tcy6q)" height="48" id="MapAdapter" style="stroke:#A80036;stroke-width:1.5;" width="105" x="153.5" y="1286"/><ellipse cx="168.5" cy="1302" fill="#ADD1B2" rx="11" ry="11" style="stroke:#A80036;stroke-width:1.0;"/><path d="M170.8438,1297.6719 C169.9063,1297.2344 169.3125,1297.0938 168.4375,1297.0938 C165.8125,1297.0938 163.8125,1299.1719 163.8125,1301.8906 L163.8125,1303.0156 C163.8125,1305.5938 165.9219,1307.4844 168.8125,1307.4844 C170.0313,1307.4844 171.1875,1307.1875 171.9375,1306.6406 C172.5156,1306.2344 172.8438,1305.7813 172.8438,1305.3906 C172.8438,1304.9375 172.4531,1304.5469 171.9844,1304.5469 C171.7656,1304.5469 171.5625,1304.625 171.375,1304.8125 C170.9219,1305.2969 170.9219,1305.2969 170.7344,1305.3906 C170.3125,1305.6563 169.625,1305.7813 168.8594,1305.7813 C166.8125,1305.7813 165.5156,1304.6875 165.5156,1302.9844 L165.5156,1301.8906 C165.5156,1300.1094 166.7656,1298.7969 168.5,1298.7969 C169.0781,1298.7969 169.6875,1298.9531 170.1563,1299.2031 C170.6406,1299.4844 170.8125,1299.7031 170.9063,1300.1094 C170.9688,1300.5156 171,1300.6406 171.1406,1300.7656 C171.2813,1300.9063 171.5156,1301.0156 171.7344,1301.0156 C172,1301.0156 172.2656,1300.875 172.4375,1300.6563 C172.5469,1300.5 172.5781,1300.3125 172.5781,1299.8906 L172.5781,1298.4688 C172.5781,1298.0313 172.5625,1297.9063 172.4688,1297.75 C172.3125,1297.4844 172.0313,1297.3438 171.7344,1297.3438 C171.4375,1297.3438 171.2344,1297.4375 171.0156,1297.75 L170.8438,1297.6719 Z " fill="#000000"/><text fill="#000000" font-family="sans-serif" font-size="12" lengthAdjust="spacingAndGlyphs" textLength="73" x="182.5" y="1306.1543">MapAdapter</text><line style="stroke:#A80036;stroke-width:1.5;" x1="154.5" x2="257.5" y1="1318" y2="1318"/><line style="stroke:#A80036;stroke-width:1.5;" x1="154.5" x2="257.5" y1="1326" y2="1326"/><!--MD5=[df429af05c09f331d50bdb7686b875ef]
class ClassAdapter--><rect codeLine="45" fill="#FEFECE" filter="url(#f1n7jzs19tcy6q)" height="48" id="ClassAdapter" style="stroke:#A80036;stroke-width:1.5;" width="112" x="294" y="1286"/><ellipse cx="309" cy="1302" fill="#ADD1B2" rx="11" ry="11" style="stroke:#A80036;stroke-width:1.0;"/><path d="M311.3438,1297.6719 C310.4063,1297.2344 309.8125,1297.0938 308.9375,1297.0938 C306.3125,1297.0938 304.3125,1299.1719 304.3125,1301.8906 L304.3125,1303.0156 C304.3125,1305.5938 306.4219,1307.4844 309.3125,1307.4844 C310.5313,1307.4844 311.6875,1307.1875 312.4375,1306.6406 C313.0156,1306.2344 313.3438,1305.7813 313.3438,1305.3906 C313.3438,1304.9375 312.9531,1304.5469 312.4844,1304.5469 C312.2656,1304.5469 312.0625,1304.625 311.875,1304.8125 C311.4219,1305.2969 311.4219,1305.2969 311.2344,1305.3906 C310.8125,1305.6563 310.125,1305.7813 309.3594,1305.7813 C307.3125,1305.7813 306.0156,1304.6875 306.0156,1302.9844 L306.0156,1301.8906 C306.0156,1300.1094 307.2656,1298.7969 309,1298.7969 C309.5781,1298.7969 310.1875,1298.9531 310.6563,1299.2031 C311.1406,1299.4844 311.3125,1299.7031 311.4063,1300.1094 C311.4688,1300.5156 311.5,1300.6406 311.6406,1300.7656 C311.7813,1300.9063 312.0156,1301.0156 312.2344,1301.0156 C312.5,1301.0156 312.7656,1300.875 312.9375,1300.6563 C313.0469,1300.5 313.0781,1300.3125 313.0781,1299.8906 L313.0781,1298.4688 C313.0781,1298.0313 313.0625,1297.9063 312.9688,1297.75 C312.8125,1297.4844 312.5313,1297.3438 312.2344,1297.3438 C311.9375,1297.3438 311.7344,1297.4375 311.5156,1297.75 L311.3438,1297.6719 Z " fill="#000000"/><text fill="#000000" font-family="sans-serif" font-size="12" lengthAdjust="spacingAndGlyphs" textLength="80" x="323" y="1306.1543">ClassAdapter</text><line style="stroke:#A80036;stroke-width:1.5;" x1="295" x2="405" y1="1318" y2="1318"/><line style="stroke:#A80036;stroke-width:1.5;" x1="295" x2="405" y1="1326" y2="1326"/><!--MD5=[cc61c9fd3084ad95c0bedd83be04b699]
class DefaultConvention--><rect codeLine="63" fill="#FEFECE" filter="url(#f1n7jzs19tcy6q)" height="112.0234" id="DefaultConvention" style="stroke:#A80036;stroke-width:1.5;" width="432" x="712" y="914"/><ellipse cx="869.25" cy="930" fill="#ADD1B2" rx="11" ry="11" style="stroke:#A80036;stroke-width:1.0;"/><path d="M871.5938,925.6719 C870.6563,925.2344 870.0625,925.0938 869.1875,925.0938 C866.5625,925.0938 864.5625,927.1719 864.5625,929.8906 L864.5625,931.0156 C864.5625,933.5938 866.6719,935.4844 869.5625,935.4844 C870.7813,935.4844 871.9375,935.1875 872.6875,934.6406 C873.2656,934.2344 873.5938,933.7813 873.5938,933.3906 C873.5938,932.9375 873.2031,932.5469 872.7344,932.5469 C872.5156,932.5469 872.3125,932.625 872.125,932.8125 C871.6719,933.2969 871.6719,933.2969 871.4844,933.3906 C871.0625,933.6563 870.375,933.7813 869.6094,933.7813 C867.5625,933.7813 866.2656,932.6875 866.2656,930.9844 L866.2656,929.8906 C866.2656,928.1094 867.5156,926.7969 869.25,926.7969 C869.8281,926.7969 870.4375,926.9531 870.9063,927.2031 C871.3906,927.4844 871.5625,927.7031 871.6563,928.1094 C871.7188,928.5156 871.75,928.6406 871.8906,928.7656 C872.0313,928.9063 872.2656,929.0156 872.4844,929.0156 C872.75,929.0156 873.0156,928.875 873.1875,928.6563 C873.2969,928.5 873.3281,928.3125 873.3281,927.8906 L873.3281,926.4688 C873.3281,926.0313 873.3125,925.9063 873.2188,925.75 C873.0625,925.4844 872.7813,925.3438 872.4844,925.3438 C872.1875,925.3438 871.9844,925.4375 871.7656,925.75 L871.5938,925.6719 Z " fill="#000000"/><text fill="#000000" font-family="sans-serif" font-size="12" lengthAdjust="spacingAndGlyphs" textLength="109" x="889.75" y="934.1543">DefaultConvention</text><line style="stroke:#A80036;stroke-width:1.5;" x1="713" x2="1143" y1="946" y2="946"/><text fill="#000000" font-family="sans-serif" font-size="11" lengthAdjust="spacingAndGlyphs" textLength="420" x="718" y="960.2104">TypeOf&lt;ExtraPropertiesExtension&gt; EXTRA_PROPERTIES_EXTENSION_TYPE</text><text fill="#000000" font-family="sans-serif" font-size="11" lengthAdjust="spacingAndGlyphs" textLength="413" x="718" y="973.0151">DefaultConvention.ExtensionsDynamicObject extensionsDynamicObject</text><text fill="#000000" font-family="sans-serif" font-size="11" lengthAdjust="spacingAndGlyphs" textLength="219" x="718" y="985.8198">ExtensionsStorage extensionsStorage</text><text fill="#000000" font-family="sans-serif" font-size="11" lengthAdjust="spacingAndGlyphs" textLength="162" x="718" y="998.6245">Map&lt;String, Object&gt; plugins</text><text fill="#000000" font-family="sans-serif" font-size="11" lengthAdjust="spacingAndGlyphs" textLength="297" x="718" y="1011.4292">Map&lt;Object, BeanDynamicObject&gt; dynamicObjects</text><line style="stroke:#A80036;stroke-width:1.5;" x1="713" x2="1143" y1="1018.0234" y2="1018.0234"/><path d="M940,1086 L940,1111.1328 L988,1111.1328 L988,1096 L978,1086 L940,1086 " fill="#FBFB77" filter="url(#f1n7jzs19tcy6q)" style="stroke:#A80036;stroke-width:1.0;"/><path d="M978,1086 L978,1096 L988,1096 L978,1086 " fill="#FBFB77" style="stroke:#A80036;stroke-width:1.0;"/><text fill="#000000" font-family="sans-serif" font-size="13" lengthAdjust="spacingAndGlyphs" textLength="27" x="946" y="1103.0669">hold</text><path d="M1179,957.5 L1179,982.6328 L1327,982.6328 L1327,967.5 L1317,957.5 L1179,957.5 " fill="#FBFB77" filter="url(#f1n7jzs19tcy6q)" style="stroke:#A80036;stroke-width:1.0;"/><path d="M1317,957.5 L1317,967.5 L1327,967.5 L1317,957.5 " fill="#FBFB77" style="stroke:#A80036;stroke-width:1.0;"/><text fill="#000000" font-family="sans-serif" font-size="13" lengthAdjust="spacingAndGlyphs" textLength="127" x="1185" y="974.5669">hold and inner class</text><!--MD5=[3a6601cec5de149d7c4d4218223cbf4f]
class ExtraPropertiesExtension--><rect fill="#FEFECE" filter="url(#f1n7jzs19tcy6q)" height="48" id="ExtraPropertiesExtension" style="stroke:#A80036;stroke-width:1.5;" width="182" x="748" y="1178"/><ellipse cx="763" cy="1194" fill="#ADD1B2" rx="11" ry="11" style="stroke:#A80036;stroke-width:1.0;"/><path d="M765.3438,1189.6719 C764.4063,1189.2344 763.8125,1189.0938 762.9375,1189.0938 C760.3125,1189.0938 758.3125,1191.1719 758.3125,1193.8906 L758.3125,1195.0156 C758.3125,1197.5938 760.4219,1199.4844 763.3125,1199.4844 C764.5313,1199.4844 765.6875,1199.1875 766.4375,1198.6406 C767.0156,1198.2344 767.3438,1197.7813 767.3438,1197.3906 C767.3438,1196.9375 766.9531,1196.5469 766.4844,1196.5469 C766.2656,1196.5469 766.0625,1196.625 765.875,1196.8125 C765.4219,1197.2969 765.4219,1197.2969 765.2344,1197.3906 C764.8125,1197.6563 764.125,1197.7813 763.3594,1197.7813 C761.3125,1197.7813 760.0156,1196.6875 760.0156,1194.9844 L760.0156,1193.8906 C760.0156,1192.1094 761.2656,1190.7969 763,1190.7969 C763.5781,1190.7969 764.1875,1190.9531 764.6563,1191.2031 C765.1406,1191.4844 765.3125,1191.7031 765.4063,1192.1094 C765.4688,1192.5156 765.5,1192.6406 765.6406,1192.7656 C765.7813,1192.9063 766.0156,1193.0156 766.2344,1193.0156 C766.5,1193.0156 766.7656,1192.875 766.9375,1192.6563 C767.0469,1192.5 767.0781,1192.3125 767.0781,1191.8906 L767.0781,1190.4688 C767.0781,1190.0313 767.0625,1189.9063 766.9688,1189.75 C766.8125,1189.4844 766.5313,1189.3438 766.2344,1189.3438 C765.9375,1189.3438 765.7344,1189.4375 765.5156,1189.75 L765.3438,1189.6719 Z " fill="#000000"/><text fill="#000000" font-family="sans-serif" font-size="12" lengthAdjust="spacingAndGlyphs" textLength="150" x="777" y="1198.1543">ExtraPropertiesExtension</text><line style="stroke:#A80036;stroke-width:1.5;" x1="749" x2="929" y1="1210" y2="1210"/><line style="stroke:#A80036;stroke-width:1.5;" x1="749" x2="929" y1="1218" y2="1218"/><!--MD5=[51a1720539e4952919255b9a296cc529]
class InstanceGenerator--><rect fill="#FEFECE" filter="url(#f1n7jzs19tcy6q)" height="48" id="InstanceGenerator" style="stroke:#A80036;stroke-width:1.5;" width="143" x="965.5" y="1178"/><ellipse cx="980.5" cy="1194" fill="#ADD1B2" rx="11" ry="11" style="stroke:#A80036;stroke-width:1.0;"/><path d="M982.8438,1189.6719 C981.9063,1189.2344 981.3125,1189.0938 980.4375,1189.0938 C977.8125,1189.0938 975.8125,1191.1719 975.8125,1193.8906 L975.8125,1195.0156 C975.8125,1197.5938 977.9219,1199.4844 980.8125,1199.4844 C982.0313,1199.4844 983.1875,1199.1875 983.9375,1198.6406 C984.5156,1198.2344 984.8438,1197.7813 984.8438,1197.3906 C984.8438,1196.9375 984.4531,1196.5469 983.9844,1196.5469 C983.7656,1196.5469 983.5625,1196.625 983.375,1196.8125 C982.9219,1197.2969 982.9219,1197.2969 982.7344,1197.3906 C982.3125,1197.6563 981.625,1197.7813 980.8594,1197.7813 C978.8125,1197.7813 977.5156,1196.6875 977.5156,1194.9844 L977.5156,1193.8906 C977.5156,1192.1094 978.7656,1190.7969 980.5,1190.7969 C981.0781,1190.7969 981.6875,1190.9531 982.1563,1191.2031 C982.6406,1191.4844 982.8125,1191.7031 982.9063,1192.1094 C982.9688,1192.5156 983,1192.6406 983.1406,1192.7656 C983.2813,1192.9063 983.5156,1193.0156 983.7344,1193.0156 C984,1193.0156 984.2656,1192.875 984.4375,1192.6563 C984.5469,1192.5 984.5781,1192.3125 984.5781,1191.8906 L984.5781,1190.4688 C984.5781,1190.0313 984.5625,1189.9063 984.4688,1189.75 C984.3125,1189.4844 984.0313,1189.3438 983.7344,1189.3438 C983.4375,1189.3438 983.2344,1189.4375 983.0156,1189.75 L982.8438,1189.6719 Z " fill="#000000"/><text fill="#000000" font-family="sans-serif" font-size="12" lengthAdjust="spacingAndGlyphs" textLength="111" x="994.5" y="1198.1543">InstanceGenerator</text><line style="stroke:#A80036;stroke-width:1.5;" x1="966.5" x2="1107.5" y1="1210" y2="1210"/><line style="stroke:#A80036;stroke-width:1.5;" x1="966.5" x2="1107.5" y1="1218" y2="1218"/><!--MD5=[ca17019c6ee742e6547341a266aa5ab7]
class plugins--><rect fill="#FEFECE" filter="url(#f1n7jzs19tcy6q)" height="48" id="plugins" style="stroke:#A80036;stroke-width:1.5;" width="75" x="1143.5" y="1178"/><ellipse cx="1158.5" cy="1194" fill="#ADD1B2" rx="11" ry="11" style="stroke:#A80036;stroke-width:1.0;"/><path d="M1160.8438,1189.6719 C1159.9063,1189.2344 1159.3125,1189.0938 1158.4375,1189.0938 C1155.8125,1189.0938 1153.8125,1191.1719 1153.8125,1193.8906 L1153.8125,1195.0156 C1153.8125,1197.5938 1155.9219,1199.4844 1158.8125,1199.4844 C1160.0313,1199.4844 1161.1875,1199.1875 1161.9375,1198.6406 C1162.5156,1198.2344 1162.8438,1197.7813 1162.8438,1197.3906 C1162.8438,1196.9375 1162.4531,1196.5469 1161.9844,1196.5469 C1161.7656,1196.5469 1161.5625,1196.625 1161.375,1196.8125 C1160.9219,1197.2969 1160.9219,1197.2969 1160.7344,1197.3906 C1160.3125,1197.6563 1159.625,1197.7813 1158.8594,1197.7813 C1156.8125,1197.7813 1155.5156,1196.6875 1155.5156,1194.9844 L1155.5156,1193.8906 C1155.5156,1192.1094 1156.7656,1190.7969 1158.5,1190.7969 C1159.0781,1190.7969 1159.6875,1190.9531 1160.1563,1191.2031 C1160.6406,1191.4844 1160.8125,1191.7031 1160.9063,1192.1094 C1160.9688,1192.5156 1161,1192.6406 1161.1406,1192.7656 C1161.2813,1192.9063 1161.5156,1193.0156 1161.7344,1193.0156 C1162,1193.0156 1162.2656,1192.875 1162.4375,1192.6563 C1162.5469,1192.5 1162.5781,1192.3125 1162.5781,1191.8906 L1162.5781,1190.4688 C1162.5781,1190.0313 1162.5625,1189.9063 1162.4688,1189.75 C1162.3125,1189.4844 1162.0313,1189.3438 1161.7344,1189.3438 C1161.4375,1189.3438 1161.2344,1189.4375 1161.0156,1189.75 L1160.8438,1189.6719 Z " fill="#000000"/><text fill="#000000" font-family="sans-serif" font-size="12" lengthAdjust="spacingAndGlyphs" textLength="43" x="1172.5" y="1198.1543">plugins</text><line style="stroke:#A80036;stroke-width:1.5;" x1="1144.5" x2="1217.5" y1="1210" y2="1210"/><line style="stroke:#A80036;stroke-width:1.5;" x1="1144.5" x2="1217.5" y1="1218" y2="1218"/><!--MD5=[2b67b62f1f4bb354637452d7ff2d1cff]
class ExtensionsDynamicObject--><rect codeLine="81" fill="#FEFECE" filter="url(#f1n7jzs19tcy6q)" height="48" id="ExtensionsDynamicObject" style="stroke:#A80036;stroke-width:1.5;" width="188" x="1362" y="946"/><ellipse cx="1377" cy="962" fill="#ADD1B2" rx="11" ry="11" style="stroke:#A80036;stroke-width:1.0;"/><path d="M1379.3438,957.6719 C1378.4063,957.2344 1377.8125,957.0938 1376.9375,957.0938 C1374.3125,957.0938 1372.3125,959.1719 1372.3125,961.8906 L1372.3125,963.0156 C1372.3125,965.5938 1374.4219,967.4844 1377.3125,967.4844 C1378.5313,967.4844 1379.6875,967.1875 1380.4375,966.6406 C1381.0156,966.2344 1381.3438,965.7813 1381.3438,965.3906 C1381.3438,964.9375 1380.9531,964.5469 1380.4844,964.5469 C1380.2656,964.5469 1380.0625,964.625 1379.875,964.8125 C1379.4219,965.2969 1379.4219,965.2969 1379.2344,965.3906 C1378.8125,965.6563 1378.125,965.7813 1377.3594,965.7813 C1375.3125,965.7813 1374.0156,964.6875 1374.0156,962.9844 L1374.0156,961.8906 C1374.0156,960.1094 1375.2656,958.7969 1377,958.7969 C1377.5781,958.7969 1378.1875,958.9531 1378.6563,959.2031 C1379.1406,959.4844 1379.3125,959.7031 1379.4063,960.1094 C1379.4688,960.5156 1379.5,960.6406 1379.6406,960.7656 C1379.7813,960.9063 1380.0156,961.0156 1380.2344,961.0156 C1380.5,961.0156 1380.7656,960.875 1380.9375,960.6563 C1381.0469,960.5 1381.0781,960.3125 1381.0781,959.8906 L1381.0781,958.4688 C1381.0781,958.0313 1381.0625,957.9063 1380.9688,957.75 C1380.8125,957.4844 1380.5313,957.3438 1380.2344,957.3438 C1379.9375,957.3438 1379.7344,957.4375 1379.5156,957.75 L1379.3438,957.6719 Z " fill="#000000"/><text fill="#000000" font-family="sans-serif" font-size="12" lengthAdjust="spacingAndGlyphs" textLength="156" x="1391" y="966.1543">ExtensionsDynamicObject</text><line style="stroke:#A80036;stroke-width:1.5;" x1="1363" x2="1549" y1="978" y2="978"/><line style="stroke:#A80036;stroke-width:1.5;" x1="1363" x2="1549" y1="986" y2="986"/><!--MD5=[f00bbb56c221a5d8c921f5803498b6fc]
reverse link MethodAccess to DynamicObject--><path d="M1301.61,142.93 C1266.24,163.89 1226.01,187.71 1197.15,204.81 " fill="none" id="MethodAccess-backto-DynamicObject" style="stroke:#A80036;stroke-width:1.0;"/><polygon fill="none" points="1298.27,136.78,1319.04,132.61,1305.4,148.82,1298.27,136.78" style="stroke:#A80036;stroke-width:1.0;"/><!--MD5=[fa977934e001a20e53d25a31ba39e619]
reverse link PropertyAccess to DynamicObject--><path d="M1035.87,155.33 C1065.42,172.91 1096.09,191.16 1119.31,204.98 " fill="none" id="PropertyAccess-backto-DynamicObject" style="stroke:#A80036;stroke-width:1.0;"/><polygon fill="none" points="1032.27,161.33,1018.66,145.09,1039.43,149.3,1032.27,161.33" style="stroke:#A80036;stroke-width:1.0;"/><!--MD5=[31098cd5d2d493aa8b81e95712b890ec]
reverse link DynamicObject to AbstractDynamicObject--><path d="M1158,273.02 C1158,286.58 1158,301.04 1158,312.68 " fill="none" id="DynamicObject-backto-AbstractDynamicObject" style="stroke:#A80036;stroke-width:1.0;stroke-dasharray:7.0,7.0;"/><polygon fill="none" points="1151,273,1158,253,1165,273,1151,273" style="stroke:#A80036;stroke-width:1.0;"/><!--MD5=[1bcde534cbddc31878394e6d72954898]
reverse link AbstractDynamicObject to CompositeDynamicObject--><path d="M1158,381.02 C1158,394.58 1158,409.038 1158,420.678 " fill="none" id="AbstractDynamicObject-backto-CompositeDynamicObject" style="stroke:#A80036;stroke-width:1.0;"/><polygon fill="none" points="1151,381,1158,361,1165,381,1151,381" style="stroke:#A80036;stroke-width:1.0;"/><!--MD5=[1ee075ed484af5c3c637446836dd76aa]
reverse link CompositeDynamicObject to MixInClosurePropertiesAsMethodsDynamicObject--><path d="M1158,489.024 C1158,502.579 1158,517.038 1158,528.678 " fill="none" id="CompositeDynamicObject-backto-MixInClosurePropertiesAsMethodsDynamicObject" style="stroke:#A80036;stroke-width:1.0;"/><polygon fill="none" points="1151,489,1158,469,1165,489,1151,489" style="stroke:#A80036;stroke-width:1.0;"/><!--MD5=[aa196e41cb5e6d8d4e0083429a4f8a72]
reverse link AbstractDynamicObject to ExtraPropertiesDynamicObjectAdapter--><path d="M1265.59,343.02 C1399.56,355.73 1611,399.88 1611,552 C1611,552 1611,552 1611,700.5 C1611,798.651 1678.29,901.011 1711.67,945.752 " fill="none" id="AbstractDynamicObject-backto-ExtraPropertiesDynamicObjectAdapter" style="stroke:#A80036;stroke-width:1.0;"/><polygon fill="none" points="1264.94,349.99,1245.61,341.3,1266.14,336.04,1264.94,349.99" style="stroke:#A80036;stroke-width:1.0;"/><!--MD5=[ab39abdf3193a318ccf074eb979a081b]
link MixInExtensibleDynamicObject to ExtensibleDynamicObject--><path codeLine="19" d="M959.578,699.5 C964.629,699.5 969.68,699.5 974.732,699.5 " fill="none" id="MixInExtensibleDynamicObject-to-ExtensibleDynamicObject" style="stroke:#A80036;stroke-width:1.0;"/><polygon fill="none" points="974.845,692.5,994.845,699.5,974.844,706.5,974.845,692.5" style="stroke:#A80036;stroke-width:1.0;"/><!--MD5=[7a1054943f7acb06aa1ad27ba73e0efb]
reverse link MixInClosurePropertiesAsMethodsDynamicObject to ExtensibleDynamicObject--><path d="M1158,597.667 C1158,610.049 1158,623.766 1158,636.991 " fill="none" id="MixInClosurePropertiesAsMethodsDynamicObject-backto-ExtensibleDynamicObject" style="stroke:#A80036;stroke-width:1.0;"/><polygon fill="none" points="1151,597.216,1158,577.216,1165,597.216,1151,597.216" style="stroke:#A80036;stroke-width:1.0;"/><!--MD5=[4550ff0d7b0afa750cfb26697961a172]
link ExtensibleDynamicObject to N11--><path codeLine="30" d="M1104.54,762.328 C1085.07,784.849 1064.97,808.089 1053.25,821.646 " fill="none" id="ExtensibleDynamicObject-N11" style="stroke:#A80036;stroke-width:1.0;"/><!--MD5=[98f4f7db575b013e2544e711f80fd669]
link N11 to DefaultConvention--><path codeLine="31" d="M1032.79,847.347 C1019.88,862.343 996.74,889.202 975.487,913.874 " fill="none" id="N11-to-DefaultConvention" style="stroke:#A80036;stroke-width:1.0;"/><polygon fill="#A80036" points="975.487,913.874,984.3915,909.6658,978.7503,910.0857,978.3303,904.4445,975.487,913.874" style="stroke:#A80036;stroke-width:1.0;"/><!--MD5=[4c239727da8ca08fb4dd502843b7bcd2]
link N11 to BeanDynamicObject--><path codeLine="32" d="M1018.8,835.973 C940.126,837.616 694.739,843.608 661,855 C470.152,919.438 467.942,1022.483 287,1111 C276.521,1116.127 272.161,1113.269 262,1119 C234.083,1134.745 207.027,1159.691 189.168,1177.938 " fill="none" id="N11-to-BeanDynamicObject" style="stroke:#A80036;stroke-width:1.0;"/><polygon fill="#A80036" points="189.168,1177.938,198.3219,1174.3039,192.6653,1174.3647,192.6046,1168.7082,189.168,1177.938" style="stroke:#A80036;stroke-width:1.0;"/><!--MD5=[0277cb12965d28e566d2957cc4db07bf]
link N11 to ExtraPropertiesDynamicObjectAdapter--><path codeLine="33" d="M1067.31,835.604 C1164.02,836.126 1518.44,839.114 1566,855 C1619.82,872.978 1671.85,914.558 1702.39,942.217 " fill="none" id="N11-to-ExtraPropertiesDynamicObjectAdapter" style="stroke:#A80036;stroke-width:1.0;"/><polygon fill="#A80036" points="1706.37,945.855,1702.422,936.8321,1702.6781,942.4831,1697.027,942.7391,1706.37,945.855" style="stroke:#A80036;stroke-width:1.0;"/><!--MD5=[d0bac3f795a593dd5033e64abadf3e10]
link ExtraPropertiesDynamicObjectAdapter to N12--><path codeLine="36" d="M1729.08,994.202 C1728.01,1021.306 1726.28,1065.079 1725.46,1085.847 " fill="none" id="ExtraPropertiesDynamicObjectAdapter-N12" style="stroke:#A80036;stroke-width:1.0;"/><!--MD5=[526134195e90f8a2aaaf707f3d5f12a4]
link N12 to DefaultExtraPropertiesExtension--><path codeLine="37" d="M1723.85,1111.143 C1722.39,1126.024 1719.8,1152.288 1717.8,1172.591 " fill="none" id="N12-to-DefaultExtraPropertiesExtension" style="stroke:#A80036;stroke-width:1.0;"/><polygon fill="#A80036" points="1717.3,1177.614,1722.1611,1169.0484,1717.789,1172.638,1714.1995,1168.2659,1717.3,1177.614" style="stroke:#A80036;stroke-width:1.0;"/><!--MD5=[09c042554a2839882fb08f1fae44fd86]
reverse link AbstractDynamicObject to BeanDynamicObject--><path d="M1050.33,341.66 C815.461,352.57 278,394.72 278,552 C278,552 278,552 278,971 C278,1053.771 219.306,1138.343 187.666,1177.92 " fill="none" id="AbstractDynamicObject-backto-BeanDynamicObject" style="stroke:#A80036;stroke-width:1.0;"/><polygon fill="none" points="1050.11,334.66,1070.41,340.77,1050.73,348.65,1050.11,334.66" style="stroke:#A80036;stroke-width:1.0;"/><!--MD5=[72516fbc9ebe044e3c3177b1d64d8756]
link BeanDynamicObject to N13--><path codeLine="41" d="M244.652,1202 C256.327,1202 268.003,1202 279.678,1202 " fill="none" id="BeanDynamicObject-N13" style="stroke:#A80036;stroke-width:1.0;"/><!--MD5=[c5bbf63e7ebb07a2fbba30fd9359f3fa]
link N13 to MetaClassAdapter--><path codeLine="42" d="M428.18,1202 C438.153,1202 448.126,1202 458.1,1202 " fill="none" id="N13-to-MetaClassAdapter" style="stroke:#A80036;stroke-width:1.0;"/><polygon fill="#A80036" points="463.315,1202,454.315,1198,458.315,1202,454.315,1206,463.315,1202" style="stroke:#A80036;stroke-width:1.0;"/><!--MD5=[2ddf961d54b57c6c0d639823cb534cad]
reverse link MetaClassAdapter to GroovyObjectAdapter--><path d="M529.535,1246.024 C528.129,1259.579 526.628,1274.038 525.42,1285.678 " fill="none" id="MetaClassAdapter-backto-GroovyObjectAdapter" style="stroke:#A80036;stroke-width:1.0;"/><polygon fill="none" points="522.586,1245.171,531.613,1226,536.511,1246.616,522.586,1245.171" style="stroke:#A80036;stroke-width:1.0;"/><!--MD5=[c6cfd7723831042f4c86c8afdcc6b451]
reverse link MetaClassAdapter to MapAdapter--><path d="M492.711,1238.669 C478.464,1249.152 461.834,1259.531 445,1266 C374.398,1293.131 349.851,1269.669 276,1286 C270.379,1287.243 264.572,1288.759 258.817,1290.415 " fill="none" id="MetaClassAdapter-backto-MapAdapter" style="stroke:#A80036;stroke-width:1.0;"/><polygon fill="none" points="488.702,1232.918,508.76,1226.087,497.339,1243.935,488.702,1232.918" style="stroke:#A80036;stroke-width:1.0;"/><!--MD5=[4b0d535f79cfe595a4cf9218bfb61c88]
reverse link MetaClassAdapter to ClassAdapter--><path d="M488.266,1237.887 C474.689,1247.546 459.55,1257.659 445,1266 C432.592,1273.113 418.795,1279.931 405.648,1285.958 " fill="none" id="MetaClassAdapter-backto-ClassAdapter" style="stroke:#A80036;stroke-width:1.0;"/><polygon fill="none" points="484.185,1232.199,504.466,1226.061,492.439,1243.507,484.185,1232.199" style="stroke:#A80036;stroke-width:1.0;"/><!--MD5=[ad0fdbe8c41aba672bb165de2db63afe]
reverse link AbstractDynamicObject to ScriptDynamicObject--><path d="M1088.03,369.33 C970.364,422.377 725.813,534.171 523,637 C510.948,643.111 498.281,649.768 485.963,656.372 " fill="none" id="AbstractDynamicObject-backto-ScriptDynamicObject" style="stroke:#A80036;stroke-width:1.0;"/><polygon fill="none" points="1085.37,362.85,1106.48,361.03,1091.11,375.62,1085.37,362.85" style="stroke:#A80036;stroke-width:1.0;"/><!--MD5=[cea6c413d2773b460881ea6e79824872]
link ScriptDynamicObject to N112--><path codeLine="56" d="M314.365,699.5 C290.155,699.5 265.944,699.5 241.734,699.5 " fill="none" id="ScriptDynamicObject-N112" style="stroke:#A80036;stroke-width:1.0;"/><!--MD5=[3b4f09e5c013d786bba85c2ee84a3d93]
link ScriptDynamicObject to N111--><path codeLine="57" d="M505.742,699.5 C517.388,699.5 529.035,699.5 540.681,699.5 " fill="none" id="ScriptDynamicObject-N111" style="stroke:#A80036;stroke-width:1.0;"/><!--MD5=[64edc097f5409d64dcdb4d4d6441cffb]
link N112 to BeanDynamicObject--><path codeLine="58" d="M168,712.378 C168,776.159 168,1078.609 168,1172.877 " fill="none" id="N112-to-BeanDynamicObject" style="stroke:#A80036;stroke-width:1.0;"/><polygon fill="#A80036" points="168,1177.997,172,1168.997,168,1172.997,164,1168.997,168,1177.997" style="stroke:#A80036;stroke-width:1.0;"/><!--MD5=[ff63a725675cd2a3b302846457f9be5b]
link N111 to ExtensibleDynamicObject--><path codeLine="59" d="M635.936,686.764 C655.258,665.361 697.828,622.953 744.5,607 C834.919,576.094 866.207,586.33 959.5,607 C986.844,613.058 1014.89,623.289 1040.96,634.79 " fill="none" id="N111-to-ExtensibleDynamicObject" style="stroke:#A80036;stroke-width:1.0;"/><polygon fill="#A80036" points="1045.81,636.951,1039.2276,629.6248,1041.2458,634.9095,1035.9612,636.9276,1045.81,636.951" style="stroke:#A80036;stroke-width:1.0;"/><!--MD5=[c2536724ba866692f2436c350e05727e]
link DefaultConvention to N1--><path codeLine="72" d="M943.685,1026.117 C950.052,1048.488 956.811,1072.239 960.706,1085.925 " fill="none" id="DefaultConvention-N1" style="stroke:#A80036;stroke-width:1.0;"/><!--MD5=[3a8fa619f47930627f217f77e34bf791]
link DefaultConvention to N2--><path codeLine="73" d="M1144.14,970 C1155.62,970 1167.1,970 1178.58,970 " fill="none" id="DefaultConvention-N2" style="stroke:#A80036;stroke-width:1.0;"/><!--MD5=[a16420596a3423d9805bfa59775adfc5]
link N1 to DefaultExtraPropertiesExtension--><path codeLine="74" d="M988.263,1110.093 C989.514,1110.441 990.764,1110.747 992,1111 C1054.49,1123.786 1504.34,1102.694 1566,1119 C1607.9,1130.08 1650.73,1155.411 1679.66,1175.009 " fill="none" id="N1-to-DefaultExtraPropertiesExtension" style="stroke:#A80036;stroke-width:1.0;"/><polygon fill="#A80036" points="1683.82,1177.857,1678.6378,1169.4818,1679.689,1175.0401,1674.1307,1176.0914,1683.82,1177.857" style="stroke:#A80036;stroke-width:1.0;"/><!--MD5=[719726cfaf167465a15b4ddf1035e73a]
link N1 to ExtraPropertiesExtension--><path codeLine="75" d="M949.661,1111.143 C930.791,1126.466 897.059,1153.856 871.781,1174.382 " fill="none" id="N1-to-ExtraPropertiesExtension" style="stroke:#A80036;stroke-width:1.0;"/><polygon fill="#A80036" points="867.8,1177.614,877.3083,1175.0464,871.6817,1174.4624,872.2657,1168.8358,867.8,1177.614" style="stroke:#A80036;stroke-width:1.0;"/><!--MD5=[7d87eabcf4fb21d2e71905c88fee71fe]
link N1 to InstanceGenerator--><path codeLine="76" d="M972.374,1111.143 C983.213,1126.214 1002.45,1152.958 1017.12,1173.363 " fill="none" id="N1-to-InstanceGenerator" style="stroke:#A80036;stroke-width:1.0;"/><polygon fill="#A80036" points="1020.18,1177.614,1018.1692,1167.9726,1017.2592,1173.5558,1011.676,1172.6458,1020.18,1177.614" style="stroke:#A80036;stroke-width:1.0;"/><!--MD5=[9b6bc21cfecca19d31bbafb0f48b9ba6]
link N1 to plugins--><path codeLine="77" d="M988.278,1110.023 C989.525,1110.39 990.77,1110.719 992,1111 C1021.08,1117.646 1100.11,1104.183 1126,1119 C1146.85,1130.931 1161.35,1154.369 1170.21,1173.142 " fill="none" id="N1-to-plugins" style="stroke:#A80036;stroke-width:1.0;"/><polygon fill="#A80036" points="1172.34,1177.804,1172.2328,1167.9557,1170.2597,1173.2573,1164.9581,1171.2842,1172.34,1177.804" style="stroke:#A80036;stroke-width:1.0;"/><!--MD5=[34258e8ba517d3b5ed907c0c9cf03cb5]
link N1 to BeanDynamicObject--><path codeLine="78" d="M939.737,1110.096 C938.486,1110.443 937.236,1110.748 936,1111 C899.305,1118.469 296.986,1105.647 262,1119 C232.789,1130.149 206.629,1154.803 189.369,1174.184 " fill="none" id="N1-to-BeanDynamicObject" style="stroke:#A80036;stroke-width:1.0;"/><polygon fill="#A80036" points="186.037,1177.984,194.9774,1173.8525,189.3328,1174.2239,188.9613,1168.5793,186.037,1177.984" style="stroke:#A80036;stroke-width:1.0;"/><!--MD5=[fbd27ff917b7cb1dbe00a40febe19055]
link N2 to ExtensionsDynamicObject--><path codeLine="79" d="M1327.14,970 C1337,970 1346.86,970 1356.72,970 " fill="none" id="N2-to-ExtensionsDynamicObject" style="stroke:#A80036;stroke-width:1.0;"/><polygon fill="#A80036" points="1361.87,970,1352.87,966,1356.87,970,1352.87,974,1361.87,970" style="stroke:#A80036;stroke-width:1.0;"/><!--MD5=[a96ad17a8495a60b0a5757bf0449383f]
reverse link AbstractDynamicObject to ExtensionsDynamicObject--><path d="M1240.93,369.36 C1313.03,402.65 1406,462.861 1406,552 C1406,552 1406,552 1406,700.5 C1406,792.724 1434.86,899.801 1448.73,945.925 " fill="none" id="AbstractDynamicObject-backto-ExtensionsDynamicObject" style="stroke:#A80036;stroke-width:1.0;"/><polygon fill="none" points="1237.65,375.57,1222.19,361.08,1243.31,362.76,1237.65,375.57" style="stroke:#A80036;stroke-width:1.0;"/><!--MD5=[0598cad9148e95a02abdfcad26d666ff]
link DefaultConvention to Convention--><path codeLine="83" d="M1119.15,1026.192 C1164.15,1048.049 1207.32,1078.069 1236,1119 C1266.08,1161.917 1266.25,1224.285 1261.99,1265.714 " fill="none" id="DefaultConvention-to-Convention" style="stroke:#A80036;stroke-width:1.0;"/><polygon fill="none" points="1268.9,1266.844,1259.4,1285.787,1255.01,1265.058,1268.9,1266.844" style="stroke:#A80036;stroke-width:1.0;"/><!--MD5=[58a3dfb08d27658622d91009b568c61f]
link DefaultConvention to ExtensionContainerInternal--><path codeLine="84" d="M818.45,1026.149 C783.642,1049.653 749.224,1080.63 730,1119 C700.735,1177.412 716.506,1202.075 730,1266 C730.066,1266.314 730.135,1266.629 730.206,1266.945 " fill="none" id="DefaultConvention-to-ExtensionContainerInternal" style="stroke:#A80036;stroke-width:1.0;"/><polygon fill="none" points="736.852,1264.746,736.712,1285.935,723.608,1269.283,736.852,1264.746" style="stroke:#A80036;stroke-width:1.0;"/><!--MD5=[375fa4dc0e3a816551ec20ffe02dc220]
@startuml
node "DynamicInvoke"{
 interface MethodAccess {
    boolean hasMethod(String name, Object... arguments);
    DynamicInvokeResult tryInvokeMethod(String name, Object... arguments);
}

interface PropertyAccess {
    boolean hasProperty(String name);
    DynamicInvokeResult tryGetProperty(String name);
    DynamicInvokeResult trySetProperty(String name, Object value);
    Map<String, ?> getProperties();
}

interface DynamicObject extends MethodAccess, PropertyAccess 
abstract class AbstractDynamicObject implements DynamicObject
abstract class CompositeDynamicObject extends AbstractDynamicObject
abstract class MixInClosurePropertiesAsMethodsDynamicObject extends CompositeDynamicObject
class ExtraPropertiesDynamicObjectAdapter extends AbstractDynamicObject
MixInExtensibleDynamicObject -|> ExtensibleDynamicObject

class ExtensibleDynamicObject extends MixInClosurePropertiesAsMethodsDynamicObject{
    private final AbstractDynamicObject dynamicDelegate;
    private DynamicObject parent;
    private Convention convention;
    private DynamicObject beforeConvention;
    private DynamicObject afterConvention;
    private DynamicObject extraPropertiesDynamicObject;
}
note "hold" as N11
ExtensibleDynamicObject - -N11
N11- ->DefaultConvention
N11- ->BeanDynamicObject
N11- ->ExtraPropertiesDynamicObjectAdapter

note "hold" as N12
ExtraPropertiesDynamicObjectAdapter -N12
N12- ->DefaultExtraPropertiesExtension
 package BeanDynamicObject{
     note "hold and inner class" as N13
   class BeanDynamicObject extends AbstractDynamicObject 
  BeanDynamicObject- N13
  N13-> MetaClassAdapter
  class GroovyObjectAdapter extends MetaClassAdapter
  class MapAdapter extends MetaClassAdapter
  class ClassAdapter extends MetaClassAdapter
 }

class ScriptDynamicObject extends AbstractDynamicObject{
     Binding binding;
     DynamicObject scriptObject;
     DynamicObject dynamicTarget;
}
note "hold as scriptObject" as N112
note "hold as dynamicTarget" as N111

ScriptDynamicObject - N112
ScriptDynamicObject - N111
N112 -> BeanDynamicObject
N111 -> ExtensibleDynamicObject


package DefaultConvention{
class DefaultConvention{
    TypeOf<ExtraPropertiesExtension> EXTRA_PROPERTIES_EXTENSION_TYPE
    DefaultConvention.ExtensionsDynamicObject extensionsDynamicObject
    ExtensionsStorage extensionsStorage
    Map<String, Object> plugins
    Map<Object, BeanDynamicObject> dynamicObjects
} 
Note "hold" as N1 
Note "hold and inner class" as N2
DefaultConvention - -N1
DefaultConvention -N2
N1 - -> DefaultExtraPropertiesExtension
N1 - -> ExtraPropertiesExtension
N1 - -> InstanceGenerator
N1- -> plugins
N1 - -> BeanDynamicObject
N2 ->ExtensionsDynamicObject

class ExtensionsDynamicObject extends AbstractDynamicObject
}
 DefaultConvention - - - -|> Convention
 DefaultConvention - - - -|> ExtensionContainerInternal

}
@enduml

PlantUML version 1.2020.22beta2(Unknown compile time)
(GPL source distribution)
Java Runtime: Java(TM) SE Runtime Environment
JVM: Java HotSpot(TM) 64-Bit Server VM
Default Encoding: UTF-8
Language: en
Country: US
--></g></svg>